<svg version="1.2" xmlns="http://www.w3.org/2000/svg" viewBox="0 0 1024 1024" width="1024" height="1024">
	<title>file-svg</title>
	<style>
		.s0 { fill: #000000 } 
		.s1 { fill: none;stroke: #000000;stroke-miterlimit:100;stroke-width: 30 } 
	</style>
	<path id="c" class="s0" d="m418.2 474.6v-105.3q47.8-22.9 91-35.6 42.8-12.7 91.2-12.7 61.5 0 113 17.8 51.3 18.3 88 55 37 36.7 57.5 92.6 20.3 55.9 20.3 130.7 0 139.5-76.4 218.8-76.7 79.4-202.4 79.4-48.9 0-95.8-13.7-47.3-13.8-86.4-33.7v-106.2h5.1q43.7 34 90.5 52.4 46.3 18.3 90.6 18.3 81.5 0 128.7-55 46.8-54.5 46.8-160.3 0-102.8-45.7-158.2-46.4-55-129.8-55-28.9 0-58.9 7.7-30.1 7.6-54 19.8-20.9 10.7-39.3 22.4-18.3 12.2-28.9 20.8z"/>
	<path id="c" class="s0" d="m606 548.7v105.3q-47.8 22.8-91 35.6-42.8 12.7-91.2 12.7-61.5 0-113-17.8-51.3-18.3-88-55-37-36.7-57.5-92.6-20.3-55.9-20.3-130.7 0-139.5 76.4-218.8 76.7-79.4 202.4-79.4 48.9 0 95.8 13.7 47.3 13.8 86.4 33.6v106.3h-5.1q-43.7-34-90.5-52.4-46.3-18.3-90.6-18.3-81.5 0-128.7 55-46.8 54.5-46.8 160.3 0 102.7 45.7 158.2 46.4 54.9 129.8 54.9 28.9 0 58.9-7.6 30.1-7.6 54.1-19.8 20.8-10.7 39.2-22.4 18.3-12.3 28.9-20.8z"/>
	<path id="Shape 1" fill-rule="evenodd" class="s1" d="m268.4 12h487.2c141.7 0 256.4 129.1 256.4 288.6v422.8c0 159.5-114.7 288.6-256.4 288.6h-487.2c-141.7 0-256.4-129.1-256.4-288.6v-422.8c0-159.5 114.7-288.6 256.4-288.6z"/>
</svg>